<svg id="Layer_1" data-name="Layer 1" xmlns="http://www.w3.org/2000/svg" viewBox="0 0 375.02 338.41"><defs><style>.cls-1{fill:#ee3124;}</style></defs><title>logo</title><g id="_01" data-name="01"><path class="cls-1" d="M132.4,297.5A57.38,57.38,0,1,1,75,240.13,57.38,57.38,0,0,1,132.4,297.5" transform="translate(-17.65 -16.46)"/><path class="cls-1" d="M143.24,64.58l7.36-7.36C206.9.92,290.48,3.08,350.24,62.85c52.4,52.4,56.73,129.48,10.39,175.82a111.12,111.12,0,0,1-51.53,29c-18.62,4.76-30.32,5.2-68.86,3.9-43.74-1.3-59.32,1.3-73.62,13L99.5,217.45c21.65-22.52,51.1-30.32,108.26-28.58,38.54.43,57.16-4.33,69.73-16.89,15.59-15.59,16.45-32,1.73-46.77-18.62-18.62-36.38-15.59-64.09,11.26Z" transform="translate(-17.65 -16.46)"/></g></svg>